<svg xmlns="http://www.w3.org/2000/svg" viewBox="0 0 150 54.2" fill="none">
  <g fill="#17171A">
    <path d="m2.2 37.6 2.9-3.4c2.8 2.7 6.2 4.3 9.1 4.3 3.9 0 5.8-1.6 5.8-4.2 0-2.8-2-3.7-6.4-4.7-5.5-1.3-9.6-2.8-10-8.2-0.3-4.6 3.1-9.9 9.6-9.9 4.2-0.1 7.5 1.1 10.6 3.6l-2.7 4c-2.5-2-5-3.2-8.2-3.2-3.1 0-5 1.6-5 3.9 0 2.7 2.2 3.6 6.5 4.7 5.5 1.3 10.4 2.9 10.4 9.2 0 5.2-3.9 9-10.6 9-4.4 0-8.6-1.4-12-5.1z"></path>
    <path d="m31.9 12h12.5c6.3 0 11.4 3.6 11.4 9.8 0 5.7-4 10.5-12.3 10.5h-6.5v10h-5.1v-30.3zm11.3 15.9c4.7 0 7.5-2.2 7.5-5.9 0-2.9-2.3-5.5-6.4-5.5h-7.3v11.4h6.2z"></path>
    <path d="m62.2 12h21.9v4.4h-17.2v8.5h15.3v4.4h-15.3v8.7h17.4v4.3h-22.1v-30.3z"></path>
    <path d="m135.8 31.4h-7.3v10.9h-5.1v-30.3h14c6 0 9.9 3.9 9.9 9.2 0 4.4-2.3 7.8-6.8 9.5l7.6 11.6h-5.1l-7.2-10.9zm-7.3-4.3h7.9c4.1 0 6.3-2.1 6.3-5.5 0-2.9-2.2-5.1-5.8-5.1h-8.4v10.6z"></path>
    <path d="m103.7 3.3-13.7 32.7-0.3 1.1 0.9 0.7c2.3 1.8 5.6 4.5 6.2 5.1 0.3 1.2 0.2 3.7 0.2 8.7h2.8c0-5.6 0.1-9.3-0.9-10.6-0.6-0.6-3.9-3.3-5.5-4.7l9.3-22.9 1-3.1 10.5 25.9c-2 1.6-5.7 4.5-6.3 5.2-0.7 1.2-0.6 4.6-0.6 10.2h2.9c0-3 0-7.7 0.4-8.6 0.5-0.7 3.5-3.1 7-5.8v-0.1l-0.5-1.2c-0.7-1.5-12.9-32.1-13.4-34.1v1.5z"></path>
    <polygon points="103.6 51.5 104.8 51.5 103.7 17.6 102.3 51.5"></polygon>
  </g>
</svg>