<svg xmlns="http://www.w3.org/2000/svg" viewBox="86 0 36 54.2" fill="none">
  <g fill="#17171A">
    <path d="m103.7 3.3-13.7 32.7-0.3 1.1 0.9 0.7c2.3 1.8 5.6 4.5 6.2 5.1 0.3 1.2 0.2 3.7 0.2 8.7h2.8c0-5.6 0.1-9.3-0.9-10.6-0.6-0.6-3.9-3.3-5.5-4.7l9.3-22.9 1-3.1 10.5 25.9c-2 1.6-5.7 4.5-6.3 5.2-0.7 1.2-0.6 4.6-0.6 10.2h2.9c0-3 0-7.7 0.4-8.6 0.5-0.7 3.5-3.1 7-5.8v-0.1l-0.5-1.2c-0.7-1.5-12.9-32.1-13.4-34.1v1.5z"></path>
    <polygon points="103.6 51.5 104.8 51.5 103.7 17.6 102.3 51.5"></polygon>
  </g>
</svg>